<?xml version="1.0" standalone="no"?>
<!DOCTYPE svg PUBLIC "-//W3C//DTD SVG 1.1//EN" "http://www.w3.org/Graphics/SVG/1.1/DTD/svg11.dtd" >
<!--
2013-9-30: Created.
-->
<svg>
<metadata>
Created by iconfont
</metadata>
<defs>

<font id="iconfont" horiz-adv-x="1024" >
  <font-face
    font-family="iconfont"
    font-weight="500"
    font-stretch="normal"
    units-per-em="1024"
    ascent="896"
    descent="-128"
  />
    <missing-glyph />
    
    <glyph glyph-name="iconfontjiantouzuo" unicode="&#58888;" d="M714.41600001-64.29399999999998c13.02300001 12.711 32.599 31.816 55.38599999 54.054C637.309 119.668 505.577 248.84000000000003 373.099 378.735c135.675 133.566 267.109 262.952 398.507 392.311-25.771 24.939-45.768 44.286-63.432 61.382-150.09299999-147.081-301.99-295.93-455.779-446.632C407.779 234.42399999999998 560.566 85.58399999999995 714.41600001-64.29399999999998z"  horiz-adv-x="1024" />

    
    <glyph glyph-name="xingxing1-copy-copy-copy" unicode="&#58886;" d="M695.938 278.109l43.875-252.703-227.391 118.969v576.703l112.641-227.813 253.969-35.859-183.094-179.297zM695.938 278.109l43.875-252.703-227.391 118.969v576.703l112.641-227.813 253.969-35.859-183.094-179.297zM145.812 457.406l253.969 35.859 113.063 227.813v-576.703l-227.391-118.969 43.875 252.703z"  horiz-adv-x="1024" />

    
    <glyph glyph-name="start1" unicode="&#58887;" d="M511.1808096 859.29325653L623.88093227 495.85418987 988.58835307 495.85418987 693.53451947 271.23547733 806.23464213-92.20468053000002 511.1808096 132.41512320000004 216.1258848-92.20468053000002 328.82709867 271.23547733 33.77326613 495.85418987 398.47959467 495.85418987Z"  horiz-adv-x="1024" />

    
    <glyph glyph-name="minsu" unicode="&#58884;" d="M875.77624311 635.77665516c0 8.30358842-4.74490722 15.42094926-12.25767778 18.97963045l-277.18168081 122.97218668c-5.5357251 2.37245362-11.4668599 2.37245362-16.60717606 0l-276.39086372-122.97218668c-7.51277055-3.16327148-12.25767777-10.67604203-12.25767778-18.97963045v-10.28063233c0-8.69899735 7.11736162-15.8163582 15.81635897-15.81635896h50.61234683V352.26843061h-178.72485045c-11.4668599 0-20.56126619-9.09440629-20.56126542-20.56126542v-25.30617342c0-11.4668599 9.09440629-20.56126619 20.56126542-20.5612662h12.25767778v-276.78627188c0-11.4668599 9.09440629-20.56126619 20.56126619-20.56126619h586.39148772c11.4668599 0 20.56126619 9.09440629 20.5612662 20.56126619V609.67966388h51.40316471c8.69899735 0 15.8163582 7.11736162 15.8163582 15.81635895v10.28063233zM347.50987276 87.34442755999999h-99.64305793v198.49529801h99.64305793V87.34442755999999z m64.8470693 462.62848317h132.06659297v-132.0665922h-132.06659297V549.97291073z m133.64822871-430.20494813h-132.06659296v132.0665922h132.06659296v-132.0665922z m196.51825333 0.79081787H610.85224006v132.0665922h132.06659298v-132.0665922z"  horiz-adv-x="1024" />

    
    <glyph glyph-name="youjiantou" unicode="&#58911;" d="M267.354606 823.994036c-13.515828-12.812817-13.515828-33.603329 0-46.417169l414.889265-393.579937-414.889265-393.565611c-13.515828-12.821003-13.515828-33.604352 0-46.425356 13.508665-12.81998 35.418674-12.81998 48.927339 0l432.159604 410.009118c0 0 18.33867 16.991999 18.33867 29.981848 0 11.971659-18.33867 29.989011-18.33867 29.989011L316.282968 823.994036C302.77328 836.815039 280.863271 836.815039 267.354606 823.994036z"  horiz-adv-x="1024" />

    
    <glyph glyph-name="sousuo01" unicode="&#59017;" d="M853.185636 68.114586 853.185636 68.114586 853.185636 68.114586 644.09962 277.200602c11.488659 8.615215 22.450315 18.096147 32.785707 28.431539 56.932664 56.932664 88.285742 132.627646 88.285742 213.142401 0 80.514755-31.354102 156.209738-88.285742 213.142401S544.256658 820.202687 463.742926 820.202687s-156.209738-31.354102-213.142401-88.286766c-56.93164-56.932664-88.285742-132.627646-88.285742-213.142401 0-80.514755 31.354102-156.209738 88.285742-213.143425 56.932664-56.932664 132.627646-88.285742 213.142401-88.285742 51.602262 0 101.215216 12.899798 145.18873 37.137829l215.306694-215.306694 0.004093-0.004093c7.992021-7.992021 20.951171-7.992021 28.943193 0C861.177658 47.163415 861.177658 60.121542 853.185636 68.114586zM203.246007 518.77352c0 143.638421 116.858498 260.496919 260.495896 260.496919 143.638421 0 260.495896-116.858498 260.495896-260.496919S607.381347 258.277624 463.742926 258.277624C320.104505 258.277624 203.246007 375.135098 203.246007 518.77352z"  horiz-adv-x="1024" />

    
    <glyph glyph-name="zuobiao" unicode="&#58901;" d="M527.053 799.076c-169.131-0.322-306.127-137.496-306.127-306.7 0-157.986 128.978-324.17 278.121-502.935 7.838-9.418 17.977-14.485 28.006-15.061 10.029 0.576 20.168 5.643 28.002 15.061 149.144 178.765 278.123 344.948 278.123 502.935 0 169.205-136.997 306.378-306.126 306.7zM527.053 395.033c-66.070 0.358-119.562 53.956-119.562 120.099s53.492 119.74 119.562 120.099c66.069-0.358 119.557-53.956 119.557-120.099s-53.487-119.74-119.557-120.099z"  horiz-adv-x="1024" />

    
    <glyph glyph-name="meishi" unicode="&#58885;" d="M427.890759 640.494345c0 89.705931-60.221793 232.448-134.497103 232.448C219.118345 872.92469 158.896552 730.200276 158.896552 640.494345c0-89.705931 60.221793-162.427586 134.497103-162.427586C367.668966 478.066759 427.890759 550.788414 427.890759 640.494345zM276.497655 473.847172l-4.837517-553.984c0-9.198345 4.148966-16.754759 9.198345-16.754759l25.05269 0c5.067034 0 9.198345 7.556414 9.198345 16.754759l-4.819862 553.984c-5.526069-0.865103-11.140414-1.465379-16.913655-1.465379C287.638069 472.381793 282.023724 472.982069 276.497655 473.847172zM847.36-106.725517l-25.05269 0c-5.067034 0-9.198345 11.29931-9.198345 25.105655l5.455448 934.859034C818.546759 867.045517 822.660414 878.344828 827.745103 878.344828l14.212414 0c5.049379 0 9.198345-11.29931 9.198345-25.105655l5.420138-934.859034C856.576-95.426207 852.427034-106.725517 847.36-106.725517zM703.629241-106.725517l-25.070345 0c-5.067034 0-9.198345 11.29931-9.198345 25.105655l5.420138 934.859034C674.798345 867.045517 678.94731 878.344828 683.99669 878.344828l14.212414 0c5.031724 0 9.18069-11.29931 9.18069-25.105655l5.437793-934.859034C712.809931-95.426207 708.696276-106.725517 703.629241-106.725517z"  horiz-adv-x="1024" />

    
    <glyph glyph-name="ktv" unicode="&#58902;" d="M399.232 582.322l-295.845-484.922c-6.754-11.045-39.255-67.928-17.056-100.744 0.097-0.164 0.391-0.641 0.887-1.338-6.555-7.996-33.732-44.645-18.887-86.209 2.224-6.227 8.084-10.109 14.339-10.109 1.699 0 3.428 0.287 5.12 0.891 7.919 2.828 12.045 11.54 9.217 19.459-10.255 28.717 13.794 56.724 14.267 57.268 0.477 0.538 0.893 1.106 1.28 1.688 4.884-1.392 10.531-2.274 17.022-2.274 15.973 0.022 37.001 5.313 64.168 21.286l485.392 329.503c-145.589 1.915-265.217 113.287-279.905 255.502zM682.896 875.089c-145.171 0-263.283-118.090-263.283-263.26s118.111-263.283 263.283-263.283 263.26 118.111 263.26 263.283-118.089 263.26-263.26 263.26z"  horiz-adv-x="1024" />

    
    <glyph glyph-name="huoche" unicode="&#58985;" d="M969.182704 408.133421l-237.075932 251.382073c-0.070332 0.073529-0.147058 0.137467-0.21739 0.210996-0.271737 0.281327-0.559458 0.543474-0.847179 0.808816-0.236571 0.220586-0.469945 0.44437-0.716106 0.648972-0.271737 0.230177-0.559458 0.441173-0.843983 0.658562-0.278131 0.210996-0.549867 0.428385-0.837588 0.626593-0.271737 0.188617-0.559458 0.354856-0.840786 0.530686-0.3101 0.191814-0.613805 0.390022-0.930299 0.565851-0.294115 0.163042-0.597821 0.300509-0.901526 0.450764-0.316493 0.156648-0.62979 0.31969-0.955874 0.460354-0.326084 0.140664-0.664956 0.258949-1.000631 0.383628-0.3101 0.115089-0.617002 0.239768-0.933496 0.342069-0.345266 0.111892-0.703319 0.198208-1.054978 0.290918-0.31969 0.083119-0.636184 0.17583-0.95907 0.246162-0.335675 0.073529-0.677743 0.121482-1.019813 0.179026-0.358053 0.057544-0.712909 0.121482-1.070962 0.163042-0.3101 0.035166-0.626593 0.05115-0.93989 0.073529a21.495976 21.495976 0 0 1-1.198838 0.060741c-0.099104 0-0.191814 0.015985-0.290918 0.015985H28.311773a21.380887 21.380887 0 0 1-21.380887-21.380888v-444.216065a21.380887 21.380887 0 0 1 16.863663-20.894958 21.272193 21.272193 0 0 1 11.774194-3.542169h858.144672c70.74107 0 128.28852 57.550648 128.288521 128.288521 0 42.541188-20.834217 80.293416-52.819232 103.646792z m-201.676626 24.638531h-140.507083v119.126197h143.563323c1.336305 0 2.637445 0.137467 3.906615 0.374037l112.700422-119.500234h-119.663277z m126.207337-213.815266H49.69266V623.464019h657.63172l27.164084-28.800899h-128.870357a21.380887 21.380887 0 0 1-21.380887-21.380887v-161.887971a21.380887 21.380887 0 0 1 21.380887-21.380887h288.095308a85.028029 85.028029 0 0 0 47.253423-14.283763l0.364447-0.386825a21.268996 21.268996 0 0 1 6.476926-4.667479c19.171827-15.696794 31.43195-39.536099 31.43195-66.188679 0-47.16391-38.36923-85.529943-85.526746-85.529943zM278.782729 594.659923h-161.891168a21.380887 21.380887 0 0 1-21.380887-21.380887v-161.887971a21.380887 21.380887 0 0 1 21.380887-21.380887h161.887971a21.380887 21.380887 0 0 1 21.380888 21.380887v161.887971a21.374493 21.374493 0 0 1-21.377691 21.380887z m-21.384084-161.887971H138.272449v119.126197h119.126196v-119.126197zM523.144404 594.659923H361.253236a21.380887 21.380887 0 0 1-21.380887-21.380887v-161.887971a21.380887 21.380887 0 0 1 21.380887-21.380887h161.887971a21.380887 21.380887 0 0 1 21.380887 21.380887v161.887971a21.374493 21.374493 0 0 1-21.37769 21.380887z m-21.384084-161.887971h-119.126197v119.126197h119.126197v-119.126197zM878.438613 139.536024H21.384084a21.380887 21.380887 0 1 1 0-42.761774h857.054529a21.380887 21.380887 0 1 1 0 42.761774z"  horiz-adv-x="1024" />

    
    <glyph glyph-name="qinzi" unicode="&#58960;" d="M340.245098 726.111191c66.042655 0.956981 116.735327-21.080933 141.373497-61.738973 8.763216-14.461356 12.208349-30.888626 18.628327-47.854539 4.423988-11.683376 10.185016-23.610099 14.611739-35.069268 2.95844-7.655851 3.803318-15.038279 6.942217-23.01677 12.038826-30.612468 25.67171-63.568174 37.262122-94.615385 8.169887-21.882064 13.73405-42.440759 22.647649-63.562706 5.02552-11.896646 15.776522-20.145826 23.380423-29.587131 12.096245-15.021874 26.224025-28.012213 38.358549-43.105177 9.963544-12.397011 27.916515-24.758476 45.295298-29.226213 22.147284-5.687204 48.324827-3.070543 69.408495-9.49599 30.89136-9.413963 44.092235-22.210172 60.642545-45.661684l82.193766-131.147468c5.884069-9.022968 26.68611-34.473205 19.727489-47.854539-5.1677-9.933467-21.028983-17.942034-33.245535-8.768684-12.194677 9.159679-24.594422 26.374408-33.97284 38.722202l-28.496172 30.686293-10.592417 12.057966-7.672257 10.958804c-2.411593 1.676085-4.615385 0.888626-6.573095-0.366387 0.188662-27.410682-0.973387-52.702334-5.115749-75.984324-0.363653-6.816442-0.732774-13.638352-1.093694-20.457529l-0.366387-24.840503-1.096427-28.129785-4.385709-60.639811c-5.320817-32.51276 6.616843-57.377871-25.936931-65.022786-12.254831-2.879147-27.610281 11.956799-29.953518 19.724754-0.366387 5.966096-0.732774 11.934925-1.093693 17.901021-4.008385 24.083121-1.829202 53.437842-5.851258 79.637259 0.125775 4.136894 0.246081 8.279256 0.369122 12.418885-0.057419 11.858367-0.010937 28.408677-3.655669 37.262122-0.483959-0.12304-0.973387-0.246081-1.460081-0.363653l-2.922894-8.038644 0.366387-16.074554c-4.784907-27.448961-1.093693-61.506563-5.479402-89.499636l-0.732775-24.840503c-2.389719-14.382064-11.535727-24.927999-25.20689-27.763398-7.270325-1.509296-12.643092 2.080751-16.438207 4.382975-20.741889 12.585673-12.834488 39.170616-17.17098 67.21564a427910.138697 427910.138697 0 0 1-2.190121 58.083304v18.264673c-3.494349 22.426176-3.806052 41.997813-7.305869 64.29548-0.366387 10.228764-0.732774 20.457528-1.093693 30.686293-0.492162 20.454794-0.976121 40.915057-1.465549 61.372585-1.000729 6.042654 0.240612 19.593511-1.46008 24.840504-10.704521 33.01039-31.531171 56.86657-48.220927 84.020234-10.496719 17.080751-21.491068 39.025702-33.97284 54.063981-3.289282 1.706161-6.575829 3.412322-9.865111 5.113015-6.097339 3.106088-12.181006 7.486329-16.07182 12.79074-7.833576 10.67171-13.638352 29.967189-18.631061 43.102443-8.405031 22.109005-19.842326 42.88097-28.859825 63.926359-11.893912 27.768866-24.389355 54.564346-36.529348 81.100074-3.926358 8.58549-6.597703 25.236967-14.975392 29.226212l-1.826467-0.732774c-1.676085-5.550492-1.0144-14.004739 0-20.091142l-0.366387-27.39701c1.285089-6.813708 4.763033-12.3642 6.939482-18.264674 2.324098-6.288735 3.434196-13.586402 5.115749-18.997448 13.742253-44.204339 25.461174-88.48797 40.182283-131.508387 5.342691-15.609734 8.038644-31.85381 13.878965-46.760846l19.363835-63.562705c2.274882-7.417973 7.8035-17.263945 3.286548-24.110464-4.962632-1.394459-11.087313 0.254284-17.534634-0.727306-9.624499-1.471017-24.320999-2.767043-35.432921-1.093693-5.610645 0.842144-12.651294 2.086219-18.264673 1.093693-4.388443-3.702151-1.153846-10.171345-2.192855-16.807327-1.695224-10.852169-1.46008-25.860372-2.19012-37.625775l0.363653-17.170981c-3.576376-23.254648-1.656945-48.412323-4.016588-70.868575-0.724572-6.901203 0.28436-15.667153-0.73004-21.920343l-0.366387-22.647649-0.732775-31.78272v-16.801859c0-14.524244 0.656216-31.547576-1.46008-44.934379v-17.170981c-4.082209-18.765038-17.622129-44.633613-44.567992-39.815895-8.257383 1.476486-11.891178 6.335217-17.17098 10.592417-13.881699 11.199417-12.886438 26.070908-13.151659 50.047393v16.440941c-2.310427 41.762669-4.620853 83.536275-6.939483 125.298944v17.170981c-0.060153 11.461903-0.062887 25.409224-1.826467 36.529348v21.553955c-1.790922 11.314255-1.077288 24.269049-1.093693 35.802042-0.016405 11.642362 4.303682 25.220562-8.768684 25.206891-1.613197-0.773788-2.515494-1.271418-3.289282-2.925629-2.009661-3.754101-0.432009-9.444039-0.363653-14.245352-0.120306-17.77798-0.246081-35.558695-0.363653-53.336676-1.547576-9.979949 1.05268-20.145826-0.732774-31.049945-3.412322-20.837587-0.989792-43.537186-4.382975-64.659133-1.64054-10.220562 0.492162-21.594969-1.096427-31.78272l0.363653-14.978126c-1.968647-12.637623-0.216004-27.678637-2.190121-39.81863v-20.457528c-1.121035-7.158221 0.80113-15.202333-0.366387-22.647649-2.832665-18.097886-7.33868-28.343055-19.361101-36.895735-5.64619-4.019322-14.204338-7.970288-25.936931-5.843055-6.726212 1.216734-10.204156 5.315348-14.611739 8.76595-14.100438 11.038097-14.163325 30.278892-14.248086 54.794021v17.901021l-1.096427 24.843238c-1.170252 7.464455 0.128509 15.475757-1.096428 23.377689-3.641998 23.525337-1.771783 47.67408-5.479402 71.234962l-1.096427 52.240248c-0.366387 19.970835-0.73004 39.944404-1.099161 59.909771-0.377324 8.651112 2.15731 20.761028-4.016588 23.74681-4.629056 2.556507-12.252096 0.243347-17.534634 0-13.665695-0.628874-26.84743-0.721837-39.088589 1.093693-5.550492 0.825738-13.102443-2.870944-15.705433 2.192855-2.870944 5.588771 3.61739 15.628874 5.113015 19.727488 6.46646 17.756107 9.949872 38.156216 16.804594 55.526796l4.746628 17.901021c5.881334 18.420525 12.894641 38.090595 18.631061 56.623223l2.556507 13.151659c11.590412 36.977762 23.599162 75.828473 35.435655 113.240978l6.944951 24.476851c-0.246081 9.009296-0.492162 18.024061-0.732774 27.030623 1.080022 6.60864 3.327561 15.885892 0 21.55669-2.947503-0.205067-3.089683-1.249544-4.749362-2.559241l-5.479403-8.768684c-4.019322-9.033905-5.591506-17.865476-9.498724-26.300584-6.452789-13.917244-15.437477-28.518046-21.551221-42.741524l-2.925629-10.592417c-8.659315-20.834853-20.074736-41.880241-28.493438-62.466279-7.78436-19.030259-14.475027-36.611375-23.014036-55.163143-9.252643-20.09661-30.051951-32.313161-51.510208-14.975392-11.347065 9.170616-13.069632 25.29712-6.939483 40.912323 11.161138 28.438753 21.810974 58.608276 33.606453 86.943129l7.672257 23.014036c12.856362 32.482683 25.578746 67.371492 38.724937 99.7284l1.823733 9.132337c13.364929 34.087678 25.324462 67.543748 53.336675 86.943129 16.733504 11.587678 38.596428 19.232592 61.738973 24.110463l37.992162 4.019322 0.008203-0.002734z m381.028986-296.885712c35.454794 0 64.207985-28.75319 64.207985-64.210719 0-35.454794-28.75319-64.207985-64.207985-64.207984-35.457529 0-64.210719 28.75319-64.210719 64.207984 0 35.457529 28.75319 64.210719 64.210719 64.210719zM366.534744 896c43.873497 0 79.454066-35.580569 79.454066-79.4568 0-43.870762-35.580569-79.451331-79.4568-79.451331-43.870762 0-79.451331 35.577835-79.451331 79.454065C287.080679 860.419431 322.658514 896 366.534744 896z"  horiz-adv-x="1024" />

    
    <glyph glyph-name="meituan" unicode="&#58939;" d="M974.188 555.375c-53.156 39.281-138.094 56.719-138.094 56.719-16.969 24-27.656 39.281-53.156 56.719-36.094 21.844-59.531 13.125-59.531-8.719-2.156-17.438 12.75-17.438 40.406-21.844 27.656-2.156 36.094-21.844 36.094-21.844-51 15.281-118.969 15.281-123.281-21.844-2.156-32.719 53.156-28.406 82.875-24 29.719 2.156 23.344-21.844 16.969-30.563-6.375-6.563-31.875-15.281-91.406 0-61.594 13.125-123.281 28.406-218.906 32.719-97.781 6.563-193.406-39.281-261.375-45.844s-144.469 24-144.469 24c-38.25 13.125-27.656-15.281-21.281-21.844 110.531-100.313 278.344-91.594 278.344-91.594-23.344-72 8.531-109.125 8.531-109.125 27.656 21.844 59.531 32.719 59.531 32.719-74.344-52.313-153-146.156-65.906-148.313 89.25-6.563 204-122.156 204-122.156s23.344-2.156 12.75 61.125c-8.531 63.281-97.781 69.844-97.781 69.844 16.969 0 82.875 15.281 127.5 28.406 44.625 15.281 91.406 52.313 97.781 56.719 6.375 6.563 12.75 15.281 0 28.406s-6.375 17.438 8.531 37.125c14.906 17.438 95.625 72 174.281 102.563 80.719 32.719 89.25 8.719 129.656 24 38.25 26.063-2.063 56.625-2.063 56.625z"  horiz-adv-x="1024" />

    
    <glyph glyph-name="Concise" unicode="&#58883;" d="M163.84 742.4h30.72c8.704 0 15.36-6.656 15.36-15.36v-163.84c0-8.704-6.656-15.36-15.36-15.36h-30.72c-8.704 0-15.36 6.656-15.36 15.36V727.04c0 8.704 6.656 15.36 15.36 15.36zM755.2 547.8399999999999h-486.4c-18.432 0-33.28 14.848-33.28 33.28v128c0 18.432 14.848 33.28 33.28 33.28h486.4c18.432 0 33.28-14.848 33.28-33.28v-128c0-18.432-14.848-33.28-33.28-33.28z m-486.4 179.2c-9.728 0-17.92-8.192-17.92-17.92v-128c0-9.728 8.192-17.92 17.92-17.92h486.4c9.728 0 17.92 8.192 17.92 17.92v128c0 9.728-8.192 17.92-17.92 17.92h-486.4zM512-25.087999999999965H440.32c-14.336 0-25.6 11.264-25.6 25.6V302.08000000000004l122.88-0.512v-301.056c0-13.824-11.264-25.6-25.6-25.6zM430.08 286.72v-286.208c0-5.632 4.608-10.24 10.24-10.24h71.68c5.632 0 10.24 4.608 10.24 10.24v285.696l-92.16 0.512zM537.6 322.55999999999995H414.72v15.36c0 14.336 11.264 25.6 25.6 25.6h71.68c14.336 0 25.6-11.264 25.6-25.6v-15.36z m-107.52 15.36h92.16c0 5.632-4.608 10.24-10.24 10.24H440.32c-5.632 0-10.24-4.608-10.24-10.24zM194.56 540.1600000000001h-30.72c-12.8 0-23.04 10.24-23.04 23.04V727.04c0 12.8 10.24 23.04 23.04 23.04h30.72c12.8 0 23.04-10.24 23.04-23.04v-163.84c0-12.8-10.24-23.04-23.04-23.04z m-30.72 194.56c-4.096 0-7.68-3.584-7.68-7.68v-163.84c0-4.096 3.584-7.68 7.68-7.68h30.72c4.096 0 7.68 3.584 7.68 7.68V727.04c0 4.096-3.584 7.68-7.68 7.68h-30.72zM865.28 542.72V650.24c0 5.632-4.608 10.24-10.24 10.24h-56.32v-35.84h20.48c5.632 0 10.24-4.608 10.24-10.24v-93.184c-0.512-5.12-4.608-9.216-10.24-9.216H471.04c-5.632 0-10.24-4.608-10.24-10.24v-124.928h35.84V465.92c0 5.632 4.608 10.24 10.24 10.24h348.16c5.632 0 10.24 4.608 10.24 10.24V542.72z"  horiz-adv-x="1024" />

    
    <glyph glyph-name="yiyaoxiang" unicode="&#59047;" d="M32.724528 893.101887c0.483019 0 0.966038-0.483019 0.966038-0.966038v-7.245283c0-0.483019-0.483019-0.966038-0.966038-0.966038H21.132075c-0.483019 0-0.966038 0.483019-0.966037 0.966038v7.245283c0 0.483019 0.483019 0.966038 0.966037 0.966038h11.592453m0 0.483019H21.132075c-0.966038 0-1.449057-0.483019-1.449056-1.449057v-7.245283c0-0.966038 0.483019-1.449057 1.449056-1.449057h11.592453c0.483019 0 0.966038 0.966038 0.966038 1.449057v7.245283c0.483019 0.966038-0.483019 1.449057-0.966038 1.449057zM25.479245 888.754717h2.898113v-0.483019l-2.898113 0.483019zM26.445283 890.203774l0.483019-2.898114h-0.483019v2.898114z m1.449057 5.313207c0.483019 0 0.483019 0 0 0l0.483018-1.932075h-3.381132v1.449056c0 0.483019 0 0.483019 0.483019 0.483019h2.415095m0 0.483019h-2.415095c-0.483019 0-0.966038-0.483019-0.966037-0.966038v-1.932075H28.860377v1.932075c0 0.483019-0.483019 0.966038-0.966037 0.966038zM846.128302 648.211321h-191.275472v45.403773c0 46.369811-38.158491 84.528302-84.528302 84.528302H434.113208c-46.369811 0-84.528302-38.158491-84.528302-84.528302v-45.403773H158.309434c-56.513208 0-102.883019-46.369811-102.883019-102.883019v-442.445283c0-56.513208 46.369811-102.883019 102.883019-102.883019h687.818868c56.513208 0 102.883019 46.369811 102.883019 102.883019V545.811321c0 56.513208-46.369811 102.4-102.883019 102.4z m-438.581132 45.403773c0 14.490566 12.075472 26.566038 26.566038 26.566038h136.21132c14.490566 0 26.566038-12.075472 26.566038-26.566038v-45.403773H407.54717v45.403773z m483.501887-590.732075c0-24.633962-20.286792-44.920755-44.920755-44.920755H158.309434c-24.633962 0-44.920755 20.286792-44.920755 44.920755V545.328302c0 24.633962 20.286792 44.920755 44.920755 44.920755h687.818868c24.633962 0 44.920755-19.803774 44.920755-44.437736v-442.928302zM531.2 445.826415H473.237736v-83.562264H389.675472v-57.962264H473.237736v-83.562264h57.962264v83.562264h83.562264v57.962264H531.2z"  horiz-adv-x="1024" />

    
    <glyph glyph-name="zuanshi" unicode="&#58964;" d="M506.311111-29.013333l10.619259-10.808889 9.291852 9.291852 206.127408 489.244444H283.117037L506.311111-29.013333zM43.425185 446.957037l-0.189629-0.18963 239.881481 11.946667-239.691852-11.757037zM283.117037 458.714074L510.862222 717.179259H197.025185l86.091852-258.465185zM732.34963 458.714074l86.281481 258.465185H510.862222l221.487408-258.465185zM732.34963 458.714074l270.791111-12.325926-184.50963 270.791111-86.281481-258.465185zM197.025185 717.179259L30.72 446.388148l12.705185 0.568889 239.691852 11.757037-86.091852 258.465185zM283.117037 458.714074h449.232593L510.862222 717.179259 283.117037 458.714074zM732.34963 458.714074l-206.127408-489.244444-9.291852-21.617778L1003.140741 446.388148l-270.791111 12.325926zM283.117037 458.714074l-239.881481-11.946667-6.257778-0.379259L516.93037-52.148148l-10.619259 23.134815-223.194074 487.727407z"  horiz-adv-x="1024" />

    
    <glyph glyph-name="gangling" unicode="&#58893;" d="M382-7.9c-12.6 0-24.4 4.9-33.2 13.8L133.9 220.7c-18.3 18.3-18.3 48.1 0 66.5l11.3 11.3c18.3 18.3 48.1 18.3 66.5 0l214.8-214.8c18.3-18.3 18.3-48.1 0-66.5l-11.3-11.3c-8.9-8.9-20.7-13.8-33.2-13.8zM166.4 277.3L155.1 266c-6.6-6.6-6.6-17.4 0-24l214.8-214.8c3.2-3.2 7.5-5 12-5s8.8 1.8 12 5l11.3 11.3c6.6 6.6 6.6 17.4 0 24L190.4 277.3c-6.6 6.6-17.4 6.6-24 0zM325.4-64.4c-12.6 0-24.4 4.9-33.2 13.8L77.3 164.2c-8.9 8.9-13.8 20.7-13.8 33.2 0 12.6 4.9 24.4 13.8 33.2l11.3 11.3c18.3 18.3 48.1 18.3 66.5 0l214.8-214.8c18.3-18.3 18.3-48.1 0-66.5l-11.3-11.3c-8.8-8.8-20.6-13.7-33.2-13.7zM121.9 225.7c-4.4 0-8.7-1.7-12-5l-11.3-11.3c-3.2-3.2-5-7.5-5-12s1.8-8.8 5-12l214.8-214.8c3.2-3.2 7.5-5 12-5s8.8 1.8 12 5l11.3 11.3c6.6 6.6 6.6 17.4 0 24L133.9 220.7c-3.3 3.3-7.7 5-12 5zM88 220zM438.5 48.7c-12 0-24.1 4.6-33.2 13.7L190.4 277.3c-18.3 18.3-18.3 48.1 0 66.5l11.3 11.3c18.3 18.3 48.1 18.3 66.5 0L483 140.2c18.3-18.3 18.3-48.1 0-66.5l-11.3-11.3c-9.1-9.1-21.2-13.7-33.2-13.7zM234.9 338.8c-4.4 0-8.7-1.7-12-5l-11.3-11.3c-6.6-6.6-6.6-17.4 0-24l214.8-214.8c6.6-6.6 17.4-6.6 24 0l11.3 11.3c6.6 6.6 6.6 17.4 0 24L247 333.8c-3.3 3.3-7.7 5-12.1 5zM845.6 455.8c-12 0-24.1 4.6-33.2 13.7L597.5 684.4c-8.9 8.9-13.8 20.7-13.8 33.2s4.9 24.4 13.8 33.2l11.3 11.3c8.9 8.9 20.7 13.8 33.2 13.8 12.6 0 24.4-4.9 33.2-13.8L890 547.3c8.9-8.9 13.8-20.7 13.8-33.2 0-12.6-4.9-24.4-13.8-33.2l-11.3-11.3c-9-9.2-21.1-13.8-33.1-13.8zM642 745.9c-4.5 0-8.8-1.8-12-5l-11.3-11.3c-3.2-3.2-5-7.5-5-12s1.8-8.8 5-12l214.8-214.8c6.6-6.6 17.4-6.6 24 0l11.3 11.3c3.2 3.2 5 7.5 5 12s-1.8 8.8-5 12L654.1 740.9c-3.2 3.2-7.5 5-12.1 5z m-22.6 5.6zM789.1 399.2c-12 0-24.1 4.6-33.2 13.7L541 627.8c-18.3 18.3-18.3 48.1 0 66.5l11.3 11.3c18.3 18.3 48.1 18.3 66.5 0l214.8-214.8c18.3-18.3 18.3-48.1 0-66.5L822.3 413c-9.2-9.2-21.2-13.8-33.2-13.8zM585.5 689.3c-4.4 0-8.7-1.7-12-5L562.2 673c-6.6-6.6-6.6-17.4 0-24L777 434.2c6.6-6.6 17.4-6.6 24 0l11.3 11.3c6.6 6.6 6.6 17.4 0 24L597.5 684.4c-3.3 3.3-7.6 4.9-12 4.9zM902.1 512.3c-12 0-24.1 4.6-33.2 13.7L654.1 740.9c-8.9 8.9-13.8 20.7-13.8 33.2s4.9 24.4 13.8 33.2l11.3 11.3c8.9 8.9 20.7 13.8 33.2 13.8 12.6 0 24.4-4.9 33.2-13.8l214.8-214.8c8.9-8.9 13.8-20.7 13.8-33.2 0-12.6-4.9-24.4-13.8-33.2l-11.3-11.3c-9.1-9.2-21.1-13.8-33.2-13.8zM698.6 802.4c-4.5 0-8.8-1.8-12-5l-11.3-11.3c-3.2-3.2-5-7.5-5-12s1.8-8.8 5-12l214.8-214.8c6.6-6.6 17.4-6.6 24 0l11.3 11.3c3.2 3.2 5 7.5 5 12s-1.8 8.8-5 12L710.6 797.4c-3.2 3.3-7.5 5-12 5zM676 808zM398.9 188.1c-4 0-7.8 1.6-10.6 4.4l-67.8 67.8c-5.9 5.9-5.9 15.4 0 21.2l294 294c5.9 5.9 15.4 5.9 21.2 0l67.8-67.8c5.9-5.9 5.9-15.4 0-21.2l-294-294c-2.8-2.9-6.6-4.4-10.6-4.4z m-46.6 82.8l46.6-46.6 272.8 272.8-46.6 46.6-272.8-272.8z"  horiz-adv-x="1024" />

    
    <glyph glyph-name="maoyan" unicode="&#58880;" d="M610.17629313 554.91558262C650.3681576 554.91558262 682.9155559 522.3681842999999 682.9155559 482.17631984v-196.38599491c0-40.15848252-32.54739831-72.70588086-72.73926277-72.70588083H413.79029822C373.6318157 213.05106214 341.08441738 245.63184239999998 341.08441738 285.79032493V482.17631984C341.08441738 522.3681842999999 373.6318157 554.91558262 413.82368016 554.91558262h196.35261297zM666.24379268 652.52376322C729.38882915 652.52376322 780.52372126 601.3888711 780.52372126 538.24383465v-308.54007336c0-63.09259043-51.13489212-114.22748257-114.27992858-114.22748255H357.70371933C294.6111289 115.42383268000003 243.47623678 166.61117085 243.47623678 229.70376127999998V538.24383465C243.47623678 601.3888711 294.6111289 652.52376322 357.75616535 652.52376322h308.48762733z m-12.8492806-22.44690675H370.60544596c-57.84798567 0-104.73474847-46.88676279-104.73474846-104.73474849v-282.7890661c0-57.84798567 46.88676279-104.73474847 104.73474846-104.73474848h282.78906612c57.84798567 0 104.73474847 46.88676279 104.73474848 104.73474848V525.3421079699999c0 57.90043173-46.88676279 104.73474847-104.73474848 104.7347485zM516.29996 791.600008c227.499982 0 411.999968-184.399986 411.999967-411.999968s-184.399986-411.999968-411.999967-411.999967-411.999968 184.399986-411.999968 411.999967 184.499986 411.999968 411.999968 411.999968M514.19996 101.30006200000003c-163.299987 0-250.19998 94.899993-250.199981 94.899993-41.399997-7.099999-103.499992-38.799997-103.499992-38.799997-12.499999 13.499999-17.299999 25.899998-17.299998 25.899998 14.299999 13.699999 99.199992 43.099997 99.199992 43.099996-4.1 5.1-12.899999 17.299999-12.899999 17.299999-67.399995-4-107.799992-21.599998-107.799992-21.599998-5.5 13.199999-12.899999 30.199998-12.899998 30.199997 17.999999 11.599999 107.799992 21.599998 107.799991 21.599999-2.7 4.4-8.599999 25.899998-8.599999 25.899998-98.799992-2.1-107.799992-8.599999-107.799992-8.6-4.1 9.399999-8.599999 30.199998-8.599999 30.199998 35.499997 9.499999 107.699992 8.499999 107.699991 8.499999-8.799999 97.399992 34.499997 150.999988 34.499998 150.999988 1.4 114.299991 34.499997 181.199986 34.499997 181.199986 52.599996-8.599999 125.09999-60.399995 125.09999-60.399995 44.299997 21.899998 177.799986 29.799998 237.299982 0 0 0 72.499994 51.799996 125.09999 60.399995 0 0 33.099997-66.899995 34.499997-181.199986 0 0 43.299997-53.599996 34.499998-150.999988 0 0 72.199994 1 107.799991-8.599999 0 0-4.6-20.799998-8.599999-30.199998 0 0-9.099999 6.499999-107.799992 8.6 0 0-5.9-21.499998-8.599999-25.899998 0 0 89.799993-9.999999 107.799991-21.599999 0 0-7.399999-16.999999-12.899999-30.199997 0 0-40.499997 17.599999-107.799991 21.599998 0 0-8.899999-12.099999-12.899999-17.299999 0 0 84.899993-29.499998 99.199992-43.099996 0 0-4.8-12.399999-17.299998-25.899998 0 0-62.199995 31.799998-103.499992 38.799997 0 0-86.799993-94.899993-250.199981-94.899993M660.799948 459.400034c0 9.499999-7.699999 17.299999-17.299998 17.299999-9.499999 0-17.299999-7.699999-17.299999-17.299999V373.000041c0-9.499999 7.699999-17.299999 17.299999-17.299999 9.499999 0 17.299999 7.699999 17.299998 17.299999v86.399993z m-258.799979 0c0 9.499999-7.699999 17.299999-17.299999 17.299999-9.499999 0-17.299999-7.699999-17.299999-17.299999V373.000041c0-9.499999 7.699999-17.299999 17.299999-17.299999 9.499999 0 17.299999 7.699999 17.299999 17.299999v86.399993z m241.599981-146.599988s-4.6-68.999995-64.699995-68.999995c0 0-61.599995-1.9-64.599995 56.099996h-0.2c-3-57.199996-64.599995-56.099996-64.599995-56.099996-60.099995 0-64.699995 68.999995-64.699995 68.999995-57.199996 0-103.499992 46.399996-103.499992 103.499991s46.399996 103.499992 103.499992 103.499992 103.499992-46.299996 103.499992-103.499992c0-49.799996-35.199997-91.399993-82.099994-101.299992-3.2-49.799996 43.299997-53.999996 43.299997-53.999995 47.799996 0 47.799996 36.599997 47.499996 42.299996-7.799999 3.5-12.999999 9.299999-12.999999 15.899999 0 10.799999 13.499999 19.499998 30.199998 19.499999s30.199998-8.699999 30.199997-19.399999c0-6.599999-5.2-12.399999-12.999999-15.899999-0.3-5.8-0.4-42.399997 47.499997-42.399996 0 0 46.499996 4.2 43.299996 53.999995-46.999996 9.899999-82.199994 51.499996-82.199993 101.299992 0 57.199996 46.399996 103.499992 103.499992 103.499992s103.599992-46.299996 103.599992-103.499992-46.399996-103.499992-103.499992-103.499991z"  horiz-adv-x="1024" />

    
    <glyph glyph-name="meifa" unicode="&#58881;" d="M667.7576 23.596000000000004c62.1046 65.1479-46.1302 295.6616-37.3279 240.7711 8.7747-54.8915 185.7157-313.6061 156.4303-278.4788-29.2874 35.1273-115.4611 330.4356-92.7775 267.5026 22.6847-62.933 187.3459-241.6671 167.4322-191.1081-101.0084 256.513-62.593 541.0908-206.933 646.1747-289.9569 211.1171-384.2273-17.4418-384.2273-17.4418s-83.5666-22.2771-107.6091-79.1388c-16.9523-40.1398-5.2439-92.3689 0.5704-128.8407 3.9936-25.0348 0.9236-43.0193 0.9236-43.0193s8.5852 8.7071 13.2301 22.4133c4.1021 12.1713 4.3469 29.5311 4.3469 29.5311l13.91-13.1625c0 0 7.1721-19.1939 15.6754-34.6245 7.0902-12.8768 15.7839-22.4676 15.7839-22.4676l-22.6847-1.4531 29.2864-9.5222c0 0 0.6523-17.8627-0.9236-36.4585-1.6845-20.1308-5.6781-41.1044-5.6781-41.1044s3.0966-11.0838 26.5155-7.4445c23.4179 3.668 28.3904-7.9329 28.3904-7.9329l3.6403-29.2731c0 0 5.76-3.626 12.0084-5.7047 5.8143-1.9415 12.1436-2.3501 12.1436-2.3501s1.9558-6.6826 4.9715-11.3285c2.391-3.668 6.0037-5.4876 6.0037-5.4876h20.484096c0 0 14.0175-46.7825 49.7705-41.6215 35.2358 5.0944 92.2061 62.1046 92.2061 62.1046l12.4426-62.9473c0 0-20.0765-7.5254-49.1735-9.7116-48.2222-3.627-65.6364-185.132-113.4234-218.0588-53.4927-36.866 246.0273 7.4988 246.0273 7.4988S637.738-7.864299999999957 667.7576 23.596000000000004z"  horiz-adv-x="1024" />

    
    <glyph glyph-name="fenshijuan" unicode="&#58947;" d="M706.194877-120.901587H228.092382c-36.26693 0-61.655045-0.691779-91.593008 25.92456-13.886157 12.341846-22.915411 25.978746-28.819918 43.529708-5.434892 16.147535-5.279558 32.098192-5.279557 48.569039v101.525367 387.750355 193.873372 96.939395c0 15.676113-0.337762 30.960279 4.358389 46.426872 5.089905 16.761647 13.165479 30.167352 25.635566 42.548934C163.451669 897.027084 191.563551 895.97045 230.612047 895.97045h567.665321c16.70746 0 33.04826 0.727903 49.616642-4.074814 19.373429-5.615513 34.164499-14.875962 47.618972-29.811528 26.459199-29.3672 26.087119-54.659586 26.087119-90.301566v-678.778061c0-26.972163-10.792116-52.835312-29.993955-71.905297l-113.002038-112.218142C759.400462-110.188944 733.35308-120.901587 706.194877-120.901587z m138.603286 279.639539V485.133094v163.337552 81.66968 40.833033c0 9.890817 2.035601 29.88197-5.76001 39.37542-10.120206 12.321978-28.939128 9.354372-41.141895 9.354372H207.929638c-8.335668 0-14.935567-1.195712-21.230215-7.443399-10.136461-10.066019-7.497586-27.598919-7.497586-38.80827v-783.997132c0-15.508136 1.808018-29.699543 20.361427-33.553999 3.444446-0.71526 34.124762-0.538251 37.522247-0.538251h402.913505v101.687926c0 56.160548 45.845272 101.687926 102.399573 101.687926h102.399574z m0-76.263687h-102.399574c-14.135415 0-25.599442-11.382748-25.599442-25.424239v-101.687926l127.999016 127.112165zM294.402035 542.29609h239.487448c14.278105 0 39.138807-2.915226 53.221841 6.437339 31.558135 20.96109 16.615344 69.826348-21.351232 69.826348h-239.485641c-14.279912 0-39.140613 2.918839-53.223648-6.435534-31.554523-20.962896-16.613537-69.828154 21.351232-69.828153zM294.402035 687.813555H711.279364c10.289989 0 20.321691-1.464838 30.667672 2.024763 11.920999 4.020628 21.101974 13.589939 24.569901 25.61028 7.027971 24.378443-11.380941 48.63045-36.915359 48.63045H312.720636c-10.288183 0-20.319884 1.463032-30.665866-2.024764-11.922805-4.022434-21.10378-13.589939-24.568095-25.610279-7.031583-24.378443 11.377329-48.63045 36.91536-48.63045zM286.796076 91.147695c-6.478882 0-9.71742 6.478882-9.71742 9.713808 0 3.251181 3.238538 9.719226 6.484301 9.719226 149.04861 61.573765 311.062209 93.964564 469.839076 100.452478v-3.234926c12.963183 0 29.163098 3.234926 42.128087 3.234926v-6.486107c-162.00818-16.198109-320.78866-48.596132-473.081226-97.204909-9.722839-9.713808-22.687828-12.959571-35.652818-16.194496zM656.191706 275.841897c-16.205334 0-32.403442 3.245763-42.11725 16.192691-9.719226 12.964989-19.451096 25.929979-19.451097 42.129893 0 45.363013 12.959571 87.485682 42.124475 123.129468 25.937204 35.651011 64.814109 61.562928 106.938584 77.768262 16.198109 0 29.157679-9.726451 35.641981-22.678797-3.245763-3.240344-6.484301-6.486107-9.724645-6.486107 16.199915-6.478882 22.676991-19.438453 22.676991-35.643787 3.247569-90.726026-55.075015-171.732825-136.089039-194.411623z m87.494712 207.376612c-6.480688-3.238538-16.212558-9.71742-22.680603-16.203527-3.251181 0-3.251181 3.238538-3.251181 6.486107-48.608776-29.163098-81.006799-81.014024-84.234501-136.08362 0-6.484301 3.227701-29.163098 12.946928-25.935397 16.217977 6.486107 29.163098 12.970408 38.889549 25.935397a212070.595512 212070.595512 0 0 1 32.398024 35.631143c19.451096 25.92456 32.416086 58.32439 38.88413 90.733251 6.480688 9.71742-3.238538 16.198109-12.952346 19.436646zM296.515303 437.850078l-35.643787-16.198109c-3.233119-3.234926-6.471657-3.234926-9.712001-3.234926-3.245763 0-3.245763 6.486107-3.245763 9.713808 0 9.719226 6.484301 16.205334 16.210752 19.445678 19.438453 16.205334 38.876906 29.159486 61.555703 38.882325 9.719226-3.240344 16.205334-12.957764 19.445678-22.676991 0-9.713808 0-9.713808-45.363013-113.417467-16.199915-32.398024-29.159486-68.04181-32.410667-103.685597 0-3.240344 3.251181-9.719226 3.251181-12.964989v-3.234925c-1.085533-1.080115-2.165648-2.167454-3.251181-3.245763-3.227701 0-6.480688 0-6.480689 3.245763-16.198109 0-29.163098 9.719226-32.398023 25.919141 0 25.92456 6.486107 55.082239 16.199914 77.768261 12.964989 35.64198 32.403442 68.040004 51.841896 103.683791zM581.660176 441.094034c6.478882-87.485682-48.597939-165.253943-132.845082-187.938159-16.205334 0-32.403442 3.240344-42.129894 16.205334-12.959571 9.726451-19.434841 25.92456-19.43484 42.11725 0 45.370238 12.959571 87.4911 42.124475 123.136693 25.917335 35.636562 64.796047 61.557509 106.92594 77.766455 16.19269 0 29.164904-9.71742 35.643787-22.69144-3.240344-3.234926-6.478882-6.473464-9.719226-6.473464 9.721033-9.71742 19.434841-25.922754 19.43484-42.122669z m-45.357594 19.44026c-6.486107-3.238538-16.203527-9.719226-22.684216-16.198109-3.240344 0-3.240344 3.238538-3.240344 6.478882-48.603357-29.163098-81.001381-81.006799-84.247144-136.096264 0-6.468045 3.245763-29.163098 12.964989-25.911916 16.198109 6.478882 29.163098 12.959571 38.876906 25.911916 10.806566 11.879456 21.605907 23.758912 32.403442 35.643787 19.438453 25.929979 32.403442 58.322584 38.882325 90.731444 6.487913 9.721033-3.231313 16.199915-12.955958 19.44026zM241.438482 149.470279c149.050416 61.562928 311.05679 93.96637 469.837269 100.452477v-3.245763c16.199915 0 29.164904 3.245763 42.124475 3.245763v-6.486107c-162.00818-16.205334-320.790466-48.608776-473.083032-97.210327-12.966796-6.487913-22.678797-9.721033-35.643787-12.954152h-3.234925c-3.251181 0-6.478882 3.233119-6.478882 9.719227l6.478882 6.478882z"  horiz-adv-x="1024" />

    
    <glyph glyph-name="ziyuan" unicode="&#58938;" d="M419.043669 145.066667a45.511111 45.511111 0 0 0-36.408889 18.204444l-341.333333 455.111111A45.511111 45.511111 0 0 0 77.710336 691.2h682.666667a45.511111 45.511111 0 0 0 36.408889-72.817778l-341.333334-455.111111a45.511111 45.511111 0 0 0-36.408889-18.204444zM168.732558 600.177778l250.311111-333.824L669.35478 600.177778zM419.043669-105.244444a45.511111 45.511111 0 0 0-45.511111 45.511111V213.333333a45.511111 45.511111 0 0 0 91.022222 0v-273.066666a45.511111 45.511111 0 0 0-45.511111-45.511111zM669.35478-128H168.732558a45.511111 45.511111 0 0 0 0 91.022222h500.622222a45.511111 45.511111 0 0 0 0-91.022222zM741.489892 395.377778a248.718222 248.718222 0 0 0-135.168 39.594666 45.511111 45.511111 0 1 0 49.152 76.458667 159.288889 159.288889 0 1 1-73.272889 134.257778 45.511111 45.511111 0 0 0-91.022223 0 250.311111 250.311111 0 1 0 250.311112-250.311111z"  horiz-adv-x="1024" />

    
    <glyph glyph-name="fangzi-copy" unicode="&#58882;" d="M597.331316 709.979081l-426.66857-371.105511v-381.54214a91.771538 91.771538 0 0 1 85.33143-85.33143h682.662861a91.771538 91.771538 0 0 1 85.33143 85.33143V338.87357l-426.66857 371.105511z m128.002855-709.953389h-256.00571V213.33713999999998a85.342849 85.342849 0 0 0 85.331431 85.33143h85.33143a85.342849 85.342849 0 0 0 85.33143-85.33143v-213.311448zM1191.8766 370.708713a44.258614 44.258614 0 0 0-41.586654-29.368719h-64.081358L597.331316 766.524142 108.454044 341.33999400000005H44.372686a44.258614 44.258614 0 0 0-41.586654 29.368719 45.343384 45.343384 0 0 0 12.743192 49.830907L535.499429 873.082807a94.877406 94.877406 0 0 0 123.675193 0l151.490979-131.850933V810.66857a42.637169 42.637169 0 0 0 42.660006 42.671424h42.671424a42.637169 42.637169 0 0 0 42.660006-42.671424V629.831709l240.430696-209.292089a45.343384 45.343384 0 0 0 12.743193-49.830907z"  horiz-adv-x="1194" />

    
    <glyph glyph-name="jiudian" unicode="&#58906;" d="M390.7 413.6h-43.2c-12 0-22-10-22-22v-43.2c0-12 10-22 22-22h43.2c12 0 22 10 22 22v43.2c0 12-10 22-22 22zM522.3 413.6h-43.2c-12 0-22-10-22-22v-43.2c0-12 10-22 22-22h43.2c12 0 22 10 22 22v43.2c0 12-10 22-22 22zM522.3 545.7h-43.2c-12 0-22-10-22-22v-43.2c0-12 10-22 22-22h43.2c12 0 22 10 22 22v43.2c0 12.4-10 22-22 22zM390.7 545.7h-43.2c-12 0-22-10-22-22v-43.2c0-12 10-22 22-22h43.2c12 0 22 10 22 22v43.2c0 12.4-10 22-22 22zM687.5 326.4h-21.6c-12 0-22-10-22-22v-21.6c0-12 10-22 22-22h21.6c12 0 22 10 22 22v21.6c0 12-10 22-22 22zM510.4 834.4c-247.9 0-448.9-201-448.9-448.9s201-448.9 448.9-448.9 448.9 201 448.9 448.9S758.4 834.4 510.4 834.4z m265.1-704c0-0.8-0.4-1.2-1.2-1.2H250.2c-0.8 0-1.2 0.4-1.2 1.2v84.8c0 0.8 0.4 1.2 1.2 1.2h32V596.1c0 18 20 36.8 38 36.8h241.3c18 0 28-18.8 28-36.8v-379.7h21.6V475.3c0 12 15.2 26 27.2 26h76.8c18 0 27.6-18.8 27.6-36.8v-248.1h32c0.8 0 1.2-0.4 1.2-1.2l-0.4-84.8zM687.5 435.7h-21.6c-12 0-22-10-22-22V392c0-12 10-22 22-22h21.6c12 0 22 10 22 22v21.6c0 12.5-10 22.1-22 22.1z"  horiz-adv-x="1024" />

    
    <glyph glyph-name="QQ" unicode="&#59295;" d="M960 695.5c0 75.3-61.1 136.4-136.4 136.4H200.4c-75.3 0-136.4-61-136.4-136.4v-623.1C64-2.9 125.1-64 200.4-64h623.1c75.3 0 136.4 61.1 136.4 136.4V695.5h0.1zM795 270.4V261.8l3.7-4.9 1.2-8.4-0.4-7.6-1.8-6.9-0.6-2.9-1.4-3.3-1.3-2.4-1.7-3-1.5-1.8-2-2.4-1.8-1.9-1.9-1.7-2.3-1-2 2.4-1.7 2.9h-2.4l-1.7-2.9-3.1-0.1-1.4 0.1-1.4 0.7-1.7 1.2-1.7 1.5-2.7 3-3.2 4.3-2.5 4.4-2.5 3.6-2.5 4-3.4 7.2-3.9 1.9-0.5-5.5h-0.6l-1.7 4.5-1 0.8-1.5-1.1-2.6-6.7-4-10.1-5.1-12.4-3.9-6.2-4-6.5-4.8-7.4-5.1-7.1-2.6-3.3-3.2-3.6-7.2-7.1 0.6-0.6 1-1.1 3.7-2.1 15.2-7.2 6.7-3.7 6.3-3.7 6.3-4.5 5.6-4.8 2.7-2.1 2-2.5 2-2.9 1.8-3.1 1-2.6 1.2-3.1 0.5-2.6-2.5-3.1-3.6-2.1v-2l2.5-2.3 0.4-2 0.2-1.5-0.6-1.9-2.6-3.8-2.4-3-1.9-2.3-1.7-1.7-4.2-3.1-4.8-2.6-5.1-2.6-5.3-2.5-6.1-2.4-3.4-0.8-2.9-0.8-7-1.7-7.2-1.5-7.2-1.5-8-1.3-8.2-2.6-8.4-3.3H638.3l-9.4 2.9-8.8 1.9-9.4 1.9-9.4 1.3-9.9 1.5-9.5 2.5-9.3 1.9-9.3 2.5-9.5 3.3-9.3 2.9-4.9 1.7-4.4 1.5-2.7-0.8-2.7-1.4H522l-8.9 2.6-4.5 1.4-5.8 1.1-3.7-3.1-5.1-3.1-6.9-3.3-7.6-4.2-4.6-2.3-4.9-1.8-10.7-4.4-5.8-1.4-6.1-1.7-8.4-1.7-5.3-0.5-5.8-0.4-5.8-0.7-6.8-0.4h-27.8l-15.7 0.4-15.2 1.5-7.7 1.1-7.5 1.1-7.2 1.1-7.2 1.4-6.8 2.1-6.8 1.5-6.1 2.5-5.8 2.3-5.5 2.7-4.6 2.9-4.6 3.3-1.5 1.7-2 2-1.5 1.8-1.4 2-1.3 2-1.1 2-1.4 4.3 0.1 2.1v17.5l0.2 2.7 1.2 3.1 1 3.1 1.9 3.7 1.3 1.4 1.1 1.7 3 3.6 2.3 1.9 2.1 1.3 2 1.7 3.2 1.1 2.5 1.5 3.2 1.7 3.7 1.1 3.7 1.1 4.2 1 4 0.6 4.8 0.6 5.1 1.3 1.3 1.4h0.2l-4.9-1.3v0.4l1.8 1.3-1.3 1.3-6.2 5.9-4.2 3.7-5.1 4.6-5.3 5.2-5.5 6.7-6.3 7.5-2.4 4-3.2 4.2-2.7 4.9-2.5 5.2-3.3 5-2.1 5.7-2.5 5.7-2.6 6.4-1.9 6.1-1.8 9.5-0.6 2.3H264.4l-1.1-2.3-0.6-1.1-0.7-1.7-0.2-1.8-0.6-1.4-1-2.4-3.1-5.6-1.7-3.4-2.6-2.9-2.7-3.6-3-3.9-3.2-3.4-3.7-3.3-3.4-3.2-3.8-2.5-4.2-2.6-4-1.5-4.8-0.7-4.6 0.1h-1l-1.1-0.1-0.8 1.5-1.3 0.7-1.8 4.3-1.1 2.4-1.2 3.3-1 3.6-0.5 3.4-0.4 8 0.6 4.6V265.9l-0.6 11.4 0.4 5.8 0.8 5.9 0.8 6.4 1.7 6.1 1.9 6.9 2 6.8 2.7 6.9 2.5 6.7 3.6 6.8 3.3 7.2 4 6.9 4.8 7.4 4.8 6.7 5 7.4 4.2 5.1 5.3 5.9 5.6 5.9 2.6 2.9 3.2 3.2 4.6 4 4.8 4 7.7 6.9 5.8 4.3 2 1.5-1.2 3.6-6.2 4.6-5.8 2.6v10.2l6.3 4 3.8 4.4 2.7 4.5 2.6 5.1 3.6 5.3 4.6 5.3v3.7l-0.2 3.4 0.2 4.8 1.5 5.2 1.4 5.7 1.2 2.6 1.3 2.5-2.9 2.7-2.6 2V510.2l5.6 6.8 3.4 7.8 3.1 9.4 3.3 9.7 2.3 5.3 2.1 5.8 2.3 5.5 2.6 5.8 2.6 6.4 3.1 5.9 3.4 6.4 4.4 6.3 2 3.7 2.1 3 4.6 6.8 4.8 6.7 5.5 6.9 5.8 6.8 6.3 6.7 6.7 6.8 8 7.4 5.1 4.5 6.2 4.9 6.3 4.3 6.8 4.2 6.5 3.7 7.4 3 7.8 3.7 7.7 2.6 7.7 2.6 8.4 2.6 8.4 2 8.8 1.7 8.9 1.4 8.8 1.2 8.8 1.2 9.4 0.5H534.4l9.3-1.2 9.3-1.1 9.5-1 8.8-2.1 9.3-2 8.7-2.3 9.5-2.6 8.8-3.1 8.4-3.6 8.9-3.7 8.2-4 8-4.5 7.7-5 6.8-4.6 3.1-2.6 3.3-1.9 6.2-5.2 5.2-5.1 5.2-5.2 5.1-5.8 4.2-5.6 5-5.8 3.4-6.3 3.6-5.6 3.8-6.4 3.1-5.6 5.2-11.9 2.6-6.2 2-5.7 2-6.2 1.8-5.8 1.3-5 1.7-5.9 2.9-10.6 1.8-9.3 1.2-8.9 1.1-7.1 1.7-10.9 0.4-1.8 1.3-2 3.4-5.7 2.3-3.8 2-4 2.5-4.3 2.3-5.1 1.4-5.2 1.5-5.7 1.2-5.9-1.4-2.9-1.5-3.6v-10l0.7-3.7-0.7-7.1v-8.8l-0.6-1.3 1.3-3 8-12.1 6.3-9 3.1-6.2 4.2-6.7 3.6-7.2 4.2-7.8 4.2-8.8 4.8-10 2.6-6.1 2.5-5.9 2.1-6.3 2-5.6 1.5-5.9 1.7-5.6 2-10.8-2.9-11-3.3-9.9v-5.7h0.2zM960 695.5c0 75.3-61.1 136.4-136.4 136.4H200.4c-75.3 0-136.4-61-136.4-136.4v-623.1C64-2.9 125.1-64 200.4-64h623.1c75.3 0 136.4 61.1 136.4 136.4V695.5h0.1zM795 270.4V261.8l3.7-4.9 1.2-8.4-0.4-7.6-1.8-6.9-0.6-2.9-1.4-3.3-1.3-2.4-1.7-3-1.5-1.8-2-2.4-1.8-1.9-1.9-1.7-2.3-1-2 2.4-1.7 2.9h-2.4l-1.7-2.9-3.1-0.1-1.4 0.1-1.4 0.7-1.7 1.2-1.7 1.5-2.7 3-3.2 4.3-2.5 4.4-2.5 3.6-2.5 4-3.4 7.2-3.9 1.9-0.5-5.5h-0.6l-1.7 4.5-1 0.8-1.5-1.1-2.6-6.7-4-10.1-5.1-12.4-3.9-6.2-4-6.5-4.8-7.4-5.1-7.1-2.6-3.3-3.2-3.6-7.2-7.1 0.6-0.6 1-1.1 3.7-2.1 15.2-7.2 6.7-3.7 6.3-3.7 6.3-4.5 5.6-4.8 2.7-2.1 2-2.5 2-2.9 1.8-3.1 1-2.6 1.2-3.1 0.5-2.6-2.5-3.1-3.6-2.1v-2l2.5-2.3 0.4-2 0.2-1.5-0.6-1.9-2.6-3.8-2.4-3-1.9-2.3-1.7-1.7-4.2-3.1-4.8-2.6-5.1-2.6-5.3-2.5-6.1-2.4-3.4-0.8-2.9-0.8-7-1.7-7.2-1.5-7.2-1.5-8-1.3-8.2-2.6-8.4-3.3H638.3l-9.4 2.9-8.8 1.9-9.4 1.9-9.4 1.3-9.9 1.5-9.5 2.5-9.3 1.9-9.3 2.5-9.5 3.3-9.3 2.9-4.9 1.7-4.4 1.5-2.7-0.8-2.7-1.4H522l-8.9 2.6-4.5 1.4-5.8 1.1-3.7-3.1-5.1-3.1-6.9-3.3-7.6-4.2-4.6-2.3-4.9-1.8-10.7-4.4-5.8-1.4-6.1-1.7-8.4-1.7-5.3-0.5-5.8-0.4-5.8-0.7-6.8-0.4h-27.8l-15.7 0.4-15.2 1.5-7.7 1.1-7.5 1.1-7.2 1.1-7.2 1.4-6.8 2.1-6.8 1.5-6.1 2.5-5.8 2.3-5.5 2.7-4.6 2.9-4.6 3.3-1.5 1.7-2 2-1.5 1.8-1.4 2-1.3 2-1.1 2-1.4 4.3 0.1 2.1v17.5l0.2 2.7 1.2 3.1 1 3.1 1.9 3.7 1.3 1.4 1.1 1.7 3 3.6 2.3 1.9 2.1 1.3 2 1.7 3.2 1.1 2.5 1.5 3.2 1.7 3.7 1.1 3.7 1.1 4.2 1 4 0.6 4.8 0.6 5.1 1.3 1.3 1.4h0.2l-4.9-1.3v0.4l1.8 1.3-1.3 1.3-6.2 5.9-4.2 3.7-5.1 4.6-5.3 5.2-5.5 6.7-6.3 7.5-2.4 4-3.2 4.2-2.7 4.9-2.5 5.2-3.3 5-2.1 5.7-2.5 5.7-2.6 6.4-1.9 6.1-1.8 9.5-0.6 2.3H264.4l-1.1-2.3-0.6-1.1-0.7-1.7-0.2-1.8-0.6-1.4-1-2.4-3.1-5.6-1.7-3.4-2.6-2.9-2.7-3.6-3-3.9-3.2-3.4-3.7-3.3-3.4-3.2-3.8-2.5-4.2-2.6-4-1.5-4.8-0.7-4.6 0.1h-1l-1.1-0.1-0.8 1.5-1.3 0.7-1.8 4.3-1.1 2.4-1.2 3.3-1 3.6-0.5 3.4-0.4 8 0.6 4.6V265.9l-0.6 11.4 0.4 5.8 0.8 5.9 0.8 6.4 1.7 6.1 1.9 6.9 2 6.8 2.7 6.9 2.5 6.7 3.6 6.8 3.3 7.2 4 6.9 4.8 7.4 4.8 6.7 5 7.4 4.2 5.1 5.3 5.9 5.6 5.9 2.6 2.9 3.2 3.2 4.6 4 4.8 4 7.7 6.9 5.8 4.3 2 1.5-1.2 3.6-6.2 4.6-5.8 2.6v10.2l6.3 4 3.8 4.4 2.7 4.5 2.6 5.1 3.6 5.3 4.6 5.3v3.7l-0.2 3.4 0.2 4.8 1.5 5.2 1.4 5.7 1.2 2.6 1.3 2.5-2.9 2.7-2.6 2V510.2l5.6 6.8 3.4 7.8 3.1 9.4 3.3 9.7 2.3 5.3 2.1 5.8 2.3 5.5 2.6 5.8 2.6 6.4 3.1 5.9 3.4 6.4 4.4 6.3 2 3.7 2.1 3 4.6 6.8 4.8 6.7 5.5 6.9 5.8 6.8 6.3 6.7 6.7 6.8 8 7.4 5.1 4.5 6.2 4.9 6.3 4.3 6.8 4.2 6.5 3.7 7.4 3 7.8 3.7 7.7 2.6 7.7 2.6 8.4 2.6 8.4 2 8.8 1.7 8.9 1.4 8.8 1.2 8.8 1.2 9.4 0.5H534.4l9.3-1.2 9.3-1.1 9.5-1 8.8-2.1 9.3-2 8.7-2.3 9.5-2.6 8.8-3.1 8.4-3.6 8.9-3.7 8.2-4 8-4.5 7.7-5 6.8-4.6 3.1-2.6 3.3-1.9 6.2-5.2 5.2-5.1 5.2-5.2 5.1-5.8 4.2-5.6 5-5.8 3.4-6.3 3.6-5.6 3.8-6.4 3.1-5.6 5.2-11.9 2.6-6.2 2-5.7 2-6.2 1.8-5.8 1.3-5 1.7-5.9 2.9-10.6 1.8-9.3 1.2-8.9 1.1-7.1 1.7-10.9 0.4-1.8 1.3-2 3.4-5.7 2.3-3.8 2-4 2.5-4.3 2.3-5.1 1.4-5.2 1.5-5.7 1.2-5.9-1.4-2.9-1.5-3.6v-10l0.7-3.7-0.7-7.1v-8.8l-0.6-1.3 1.3-3 8-12.1 6.3-9 3.1-6.2 4.2-6.7 3.6-7.2 4.2-7.8 4.2-8.8 4.8-10 2.6-6.1 2.5-5.9 2.1-6.3 2-5.6 1.5-5.9 1.7-5.6 2-10.8-2.9-11-3.3-9.9v-5.7h0.2z"  horiz-adv-x="1024" />

    
    <glyph glyph-name="weibo1" unicode="&#58905;" d="M464.712 407.894c-102.515-6.825-184.53-58.032-184.53-126.297s82.015-116.052 184.53-112.633 184.53 64.845 184.53 136.503c0 64.883-82.04 105.884-184.53 102.427z m71.796-170.616c-30.757-41.001-95.69-58.07-153.773-27.364-27.338 13.663-27.338 44.383-27.338 44.383s-13.663 95.565 88.84 105.809c102.515 13.675 123.066-85.321 92.271-122.828zM464.762 298.64200000000005c-6.837-6.826-6.837-13.65-3.418-20.488 3.368-3.394 10.193-3.394 17.031 0 6.838 6.837 10.257 13.662 6.838 20.488-3.369 3.431-13.625 6.85-20.45 0z m-44.445-10.22c-20.488-3.406-34.163-17.106-34.163-34.125 0-13.663 13.675-27.3 34.163-23.907 17.082 0 34.176 13.7 37.57 30.732 0.025 17.057-17.07 30.707-37.57 27.3zM512.551 896C229.476 896 0 666.825 0 384s229.476-512 512.551-512 512.551 229.175 512.551 511.95S795.626 896 512.551 896z m228.975-634.928C697.08 172.32000000000005 560.39 131.36900000000003 457.887 138.19399999999996c-99.071 6.825-222.112 37.57-235.787 153.56 0 0-6.826 51.207 44.42 119.472 0 0 75.139 98.933 160.598 129.69 88.914 27.35 99.096-20.475 99.096-47.789-6.838-27.3-13.663-40.95 17.094-30.706 0 0 85.421 37.57 119.597 3.406 27.326-27.313 3.406-64.845 3.406-64.845s-10.244-13.576 13.7-16.982c27.339-3.419 102.503-40.951 61.515-122.928z m10.244 198.03c-3.419-13.663-10.257-20.488-23.932-20.488-10.244 0-20.5 10.244-20.5 20.488v10.244c0 30.707-23.945 58.02-58.096 58.02-10.269 0-20.513 10.244-20.513 20.476s10.244 20.475 20.513 20.475c58.083 0 102.503-44.382 102.503-98.934v-10.244z m78.583-17.07v-6.887c-3.406-10.244-13.663-17.07-27.326-13.638a23.343 23.343 0 0 0-23.919 23.882v3.469c3.406 6.863 3.406 17.056 3.406 23.882 0 71.695-61.489 129.715-133.234 129.715a23.356 23.356 0 0 0-23.932 23.895c0 13.637 10.244 23.794 23.957 23.894 102.502 0 184.505-81.927 184.505-180.898-0.038-10.282-3.457-17.082-3.457-27.313z"  horiz-adv-x="1025" />

    
    <glyph glyph-name="lock" unicode="&#59041;" d="M511.988232 194.562487c-5.650697 0-10.233062 4.582365-10.233062 10.233062l0 60.495816c0 5.650697 4.582365 10.233062 10.233062 10.233062s10.233062-4.582365 10.233062-10.233062l0-60.495816C522.221294 199.143828 517.639952 194.562487 511.988232 194.562487zM833.022922-9.96777 190.977078-9.96777c-6.798846 0-12.329816 5.529947-12.329816 12.32777L178.647261 417.050744c0 6.797823 5.53097 12.32777 12.329816 12.32777l642.045845 0c6.798846 0 12.328793-5.529947 12.328793-12.32777l0-414.690744C845.351716-4.437823 839.820746-9.96777 833.022922-9.96777zM199.113385 10.498354l625.772206 0 0 398.414035-625.772206 0L199.113385 10.498354zM306.846038 416.320103c-0.150426 0-0.300852 0.00307-0.452301 0.00921-5.599532 0.243547-9.951653 4.943592-9.783831 10.528797 0.031722 1.962701 0.069585 29.553083 0.106424 56.239885 0.088004 63.675228 0.116657 72.997548 0.179079 73.993225 3.558036 59.650565 27.372418 115.186416 67.055209 156.354024 40.108486 41.608653 92.597955 64.524572 147.800207 64.524572 58.434877 0 112.51354-21.979594 152.274102-61.891605 40.659025-40.814568 63.051011-97.592712 63.051011-159.875221 0-5.65172-4.582365-10.233062-10.233062-10.233062s-10.233062 4.581342-10.233062 10.233062c0 114.759697-83.770915 201.301725-194.85899 201.301725-102.228289 0-187.598632-88.49552-194.416921-201.491037-0.054235-3.133364-0.107447-41.798988-0.150426-72.942289-0.064468-46.52871-0.083911-56.110949-0.12075-56.960293C316.822251 420.612872 312.293097 416.320103 306.846038 416.320103z"  horiz-adv-x="1024" />

    
    <glyph glyph-name="shouji" unicode="&#58931;" d="M727.54062222 809.25582222c19.22389333 0 34.95253333-15.72864 34.95253333-34.95253333v-780.60657778c0-19.22389333-15.72864-34.95253333-34.95253333-34.95253333H296.45937778c-19.22389333 0-34.95253333 15.72864-34.95253333 34.95253333V774.30328889c0 19.22389333 15.72864 34.95253333 34.95253333 34.95253333h431.08124444m0 69.90506667H296.45937778c-57.67168 0-104.8576-47.18592-104.8576-104.8576v-780.60657778c0-57.67168 47.18592-104.8576 104.8576-104.8576h431.08124444c57.67168 0 104.8576 47.18592 104.8576 104.8576V774.30328889c0 57.67168-47.18592 104.8576-104.8576 104.8576zM765.40586667 106.12735999999995H258.59413333c-36.70016 0-66.99235555-29.70965333-66.99235555-66.99235555v-50.68117334c0-36.70016 29.70965333-66.99235555 66.99235555-66.99235556h506.81173334c36.70016 0 66.99235555 29.70965333 66.99235555 66.99235556v50.68117334c0 37.28270222-30.29219555 66.99235555-66.99235555 66.99235555z m-254.57095112-136.89742222c-29.12711111 0-53.01134222 23.88423111-53.01134222 53.01134222s23.88423111 53.01134222 53.01134222 53.01134222 53.01134222-23.88423111 53.01134223-53.01134222-23.88423111-53.01134222-53.01134223-53.01134222z"  horiz-adv-x="1024" />

    


  </font>
</defs>
</svg>
